<svg width="352" height="351" viewBox="0 0 352 351" fill="none" xmlns="http://www.w3.org/2000/svg">
<path d="M146.276 338.143V325.274L142.951 324.42C131.45 321.455 127.128 320.128 120.852 317.637C112.022 314.133 103.234 309.75 95.987 305.244L90.3772 301.755L80.7764 311.325L71.1761 320.897L50.6757 300.581C39.4003 289.406 30.0042 280.172 29.7917 280.039C29.5792 279.907 33.7046 275.517 38.9533 270.257C44.2018 264.998 48.4984 260.445 48.4984 260.136C48.4984 259.827 47.2207 257.582 45.6588 255.141C38.4841 243.936 30.0704 223.701 26.8749 209.966L25.4951 204.04H0V145.407H12.5392C21.8967 145.407 25.153 145.159 25.3709 144.431C25.531 143.879 26.265 140.815 27.0018 137.591C30.1035 124.008 38.4069 104.078 45.7251 92.6377L48.6281 88.0984L39.9632 79.4273L31.2956 70.74L52.0168 50.042L72.738 29.3578L81.2676 37.8521L89.7941 46.3326L96.3286 42.4082C111.716 33.1692 124.004 28.1719 142.964 23.4449L146.29 22.6175V0H204.899L205.117 11.0647L205.332 22.1266L213.94 24.2695C229.668 28.1912 245.889 35.0252 258.309 42.9349L263.218 46.0568L270.849 38.4754L278.482 30.8912L299.2 51.5892L319.921 72.2734L312.394 79.8272L304.865 87.3784L308.789 93.9285C317.62 108.65 323.796 123.827 327.383 139.74L328.66 145.407H351.219V203.999L339.71 204.216L328.199 204.432L327.529 207.559C324.217 222.982 315.939 243.012 307.512 256.029L304.476 260.718L312.986 269.328L321.497 277.935L300.773 298.619L280.051 319.317L271.627 310.925C266.994 306.308 262.948 302.53 262.642 302.53C262.336 302.53 260.081 303.81 257.636 305.374C245.988 312.82 222.704 322.197 210.118 324.519L204.952 325.47V351H146.276V338.143ZM190.428 303.294C212.656 301.187 233.024 293.917 251.907 281.352C261.996 274.636 278.851 257.802 285.45 247.852C315.393 202.691 315.384 147.393 285.43 102.379C278.771 92.37 261.922 75.5305 251.907 68.8729C212.093 42.4109 163.187 39.1621 121.25 60.1938C107.557 67.061 97.5982 74.3335 85.9895 85.936C65.1576 106.764 53.4268 130.195 49.6518 158.469C41.4424 220.105 78.6461 278.017 138.845 297.301C157.157 303.164 172.748 304.979 190.431 303.303L190.428 303.294ZM142.752 283.117C138.02 281.492 131.163 278.603 127.5 276.697L120.867 273.227L120.478 237.394C120.202 211.993 120.334 201.354 120.941 200.852C121.41 200.463 124.225 199.117 127.197 197.86C130.169 196.602 137.002 193.659 142.374 191.318L167.778 180.245C176.391 176.506 184.487 172.947 185.779 172.368C187.07 171.789 195.161 168.232 203.77 164.503C212.38 160.774 223.812 155.799 229.191 153.455C234.569 151.111 241.333 148.19 244.25 146.963L249.529 144.729V264.979L243.858 268.966C237.994 273.103 222.61 281.04 218.826 281.899L216.677 282.387V179.108L205.528 184.175C199.399 186.963 187.344 192.41 178.739 196.282C170.135 200.154 160.86 204.451 158.12 205.83L153.153 208.34L153.031 246.972C152.954 271.945 152.634 285.688 152.129 285.837C151.698 285.963 147.479 284.733 142.752 283.117ZM101.688 142.798V91.6119L105.714 87.9966C110.794 83.4291 120.743 76.8377 128.067 73.1808C131.176 71.628 133.903 70.3594 134.137 70.3594C134.372 70.3594 134.548 90.7677 134.548 115.702C134.548 144.95 134.824 161.044 135.318 161.044C135.743 161.044 139.83 159.285 144.403 157.134C148.975 154.982 152.833 153.226 152.976 153.226C153.12 153.226 157.568 151.259 162.861 148.857C168.154 146.456 176.007 142.906 180.31 140.972C184.611 139.039 190.52 136.381 193.412 135.062L198.684 132.668V62.7311L203.823 63.8094C210.997 65.3097 222.588 69.2507 227.235 71.7687L231.148 73.884L231.352 105.716L231.556 137.55L228.245 139.232C226.429 140.156 221.409 142.421 217.088 144.263C207.838 148.204 197.89 152.511 172.858 163.416C162.748 167.829 150.603 173.069 145.871 175.102C141.138 177.134 134.802 179.87 131.797 181.202C116.109 188.135 104.941 192.951 103.405 193.436L101.679 193.987L101.688 142.798Z" fill="white"/>
</svg>
